<svg xmlns="http://www.w3.org/2000/svg" viewBox="0 0 32 32">
  <rect width="32" height="32" fill="#08090B"/>
  <path
    d="M.6147461 .20762635C.6147461 .16496277 .60270187 .12726338 .5786133 .0945282 .5545247 .06180318 .5225423 .036890668 .48266603 .01979065 .4427897 .002690633 .39860026-.005859375 .35009767-.005859375 .30973307-.005859375 .27327476-.0021158856 .24072266 .0053710939 .20817058 .012858073 .18115235 .02319336 .15966797 .036376954 .1381836 .049560548 .119791667 .064208988 .10449219 .080322269 .08919271 .09643555 .07739258 .11425781 .0690918 .13378906 .060791017 .15332031 .05476888 .17179363 .05102539 .18920899 .047281904 .20662435 .045247396 .22460938 .044921876 .24316406H.13427735C.14111328 .18847656 .16300456 .14713542 .19995117 .119140628 .23689778 .091145839 .28548179 .07714844 .34570313 .07714844 .37760417 .07714844 .40690104 .08139038 .43359376 .08987427 .46028648 .098358158 .48250328 .11214193 .50024417 .13122559 .51798507 .15031941 .52685549 .17324321 .52685549 .19999695 .52685549 .21565247 .52335616 .229599 .5163574 .24183655 .5093587 .2540741 .5008952 .2636973 .4909668 .27070619 .48103843 .27772523 .46777345 .28416953 .45117188 .29003907 .4345703 .2959188 .41975913 .3003489 .40673829 .30332948 .39371745 .30631004 .37719728 .3100586 .35717774 .3145752 .3371582 .31910197 .32210288 .3225352 .31201173 .32487489 .2915039 .32962547 .27392579 .3337148 .25927735 .33714295 .2446289 .34057109 .22835286 .34553529 .21044922 .35203553 .19254558 .35854594 .17740886 .36521403 .16503906 .3720398 .15266927 .37887574 .1402181 .38717143 .12768555 .39692689 .11515299 .4066925 .10514323 .41734825 .09765625 .42889405 .09016927 .44045005 .08406576 .45387269 .0793457 .469162 .07462565 .4844513 .072265628 .50104269 .072265628 .51893618 .072265628 .5593211 .08341471 .59465536 .10571289 .62493899 .12801107 .6552327 .15812175 .6782786 .19604492 .69407656 .2339681 .70987448 .27669273 .71777346 .32421876 .71777346 .3997396 .71777346 .4620768 .6984456 .51123049 .65979006 .5603841 .6211446 .58772787 .56657919 .5932617 .49609376H.5024414C.4975586 .53794357 .47973634 .57151797 .4489746 .596817 .4182129 .6221161 .3779297 .6347656 .328125 .6347656 .27799479 .6347656 .23746746 .6252187 .20654297 .6061249 .17561849 .5870412 .16015625 .5603485 .16015625 .52604678 .16015625 .5179596 .16129558 .51027426 .16357422 .5029907 .16585286 .49571739 .16878255 .48924766 .17236328 .48358155 .17594402 .47791545 .18074544 .4724935 .18676758 .46731568 .19278972 .46214805 .1985677 .45770265 .20410156 .4539795 .20963542 .45025636 .21663411 .4466146 .22509766 .4430542 .2335612 .4394938 .2409668 .43657939 .24731446 .4343109 .2536621 .4320526 .26163737 .429835 .27124024 .42765809 .2808431 .42549134 .28857423 .423762 .2944336 .4211782 .30029298 .4211782 .30794273 .41949974 .3173828 .4174347 .3268229 .41537986 .33365885 .41386415 .33789063 .41288758 .34570313 .41119895 .35847984 .4084269 .3762207 .40457154 .39396159 .40071617 .40893556 .39745585 .42114259 .39479066 .4333496 .39213563 .44840495 .38809715 .4663086 .38267518 .48421226 .3772634 .49943034 .3716024 .5119629 .36569215 .5244954 .3597819 .537679 .3518219 .5515137 .34181214 .5653483 .33180238 .5764974 .32080589 .58496096 .30882264 .5934245 .2968394 .6005046 .28214518 .6062012 .26474 .61189779 .24734497 .6147461 .22830709 .6147461 .20762635Z"
    fill="#F0ECE2"
    transform="matrix(36,0,0,-36,3.0,28.8)"
  />
</svg>
